<!DOCTYPE svg PUBLIC "-//W3C//DTD SVG 20010904//EN" "http://www.w3.org/TR/2001/REC-SVG-20010904/DTD/svg10.dtd">
<svg version="1.0" xmlns="http://www.w3.org/2000/svg" width="300px" height="196px" viewBox="0 0 3000 1960" preserveAspectRatio="xMidYMid meet">
<g id="layer101" fill="#ff5900" stroke="none">
 <path d="M1320 1520 l0 -430 180 0 180 0 0 225 0 226 -180 205 -180 205 0 -431z"/>
 <path d="M290 1702 l0 -239 35 -25 c69 -49 185 -160 257 -246 150 -179 268 -389 344 -616 l44 -131 -30 -3 c-59 -6 -479 56 -621 93 -23 6 -38 -8 -168 -159 -78 -90 -143 -168 -144 -172 -3 -11 103 -37 333 -83 329 -66 584 -97 898 -108 l182 -6 0 94 c0 270 -82 591 -225 884 -152 312 -360 570 -630 780 -83 65 -251 175 -267 175 -4 0 -8 -107 -8 -238z"/>
 <path d="M2588 1872 c-345 -228 -609 -529 -788 -897 -139 -284 -220 -608 -220 -874 l0 -94 183 6 c317 12 569 42 897 108 230 46 330 71 331 82 0 5 -64 83 -142 173 -115 134 -147 164 -163 160 -135 -32 -580 -99 -626 -94 l-30 3 44 131 c76 227 194 437 344 616 72 86 188 197 257 246 l35 25 0 239 c0 135 -4 238 -9 238 -5 0 -56 -31 -113 -68z"/>
 </g>

</svg>