<?xml version="1.0" encoding="UTF-8"?>
<!-- Created with Inkscape (http://www.inkscape.org/) -->
<svg width="79.375mm" height="70.769mm" version="1.1" viewBox="0 0 79.375 70.769" xmlns="http://www.w3.org/2000/svg" xmlns:cc="http://creativecommons.org/ns#" xmlns:dc="http://purl.org/dc/elements/1.1/" xmlns:rdf="http://www.w3.org/1999/02/22-rdf-syntax-ns#">
 <metadata>
  <rdf:RDF>
   <cc:Work rdf:about="">
    <dc:format>image/svg+xml</dc:format>
    <dc:type rdf:resource="http://purl.org/dc/dcmitype/StillImage"/>
    <dc:title/>
   </cc:Work>
  </rdf:RDF>
 </metadata>
 <g transform="translate(213.98 -121.89)" stroke-width=".10335">
  <path d="m-137.23 124.5c-0.95084-1.1885-2.5528-1.6536-4.0204-1.4469-0.5891 0.062-1.1679 0.21704-1.7363 0.40307-21.373 6.9969-42.757 13.953-64.13 20.96-3.3176 1.1162-5.6637 4.4028-5.6223 7.9064 0.13435 11.028 0.32038 22.066 0.48575 33.093 0.031 2.2841 0.95084 4.9299 3.2762 5.798 2.3151 0.94049 4.6715-0.28939 6.8626-0.99218 20.216-6.8832 40.442-13.766 60.657-20.65 1.7466-0.55809 3.4416-1.602 4.3408-3.2556 0.99218-1.757 1.1059-3.824 1.1059-5.798 0.0413-10.428 0.12403-20.846 0.16536-31.274-0.0207-1.633-0.29971-3.421-1.3849-4.7439z"/>
  <g fill="#fff">
   <path class="st1" d="m-140.98 122.77c1.4779-0.2067 3.1006 0.26872 4.0514 1.4573 1.0955 1.3332 1.3746 3.1316 1.3952 4.8059-0.0413 10.511-0.12402 21.011-0.16536 31.522 0 1.9844-0.12403 4.0721-1.1162 5.8394-0.90949 1.6536-2.6148 2.7182-4.3821 3.2762-20.381 6.9349-40.762 13.87-61.143 20.815-2.2117 0.7028-4.5785 1.943-6.9142 0.99218-2.3358-0.87849-3.2659-3.5346-3.2969-5.8394-0.16535-11.121-0.35139-22.241-0.48575-33.362-0.0413-3.5243 2.3254-6.8522 5.6637-7.9684 21.539-7.0589 43.098-14.077 64.647-21.135 0.5581-0.18604 1.1472-0.34106 1.7466-0.40308zm0.31006 0.72347c-1.3849 0.11369-2.6561 0.71313-3.9687 1.1059-20.567 6.7179-41.134 13.436-61.701 20.154-2.6252 0.7028-4.9816 2.7078-5.643 5.4053-0.53743 1.8707-0.23771 3.8447-0.26871 5.7567 0.14469 9.5807 0.28938 19.161 0.42374 28.742-0.0104 1.757 0.16536 3.6793 1.3436 5.0746 1.1885 1.4263 3.2762 1.6226 4.9402 1.0645 21.404-7.2863 42.808-14.573 64.213-21.859 1.4676-0.48575 2.8938-1.3436 3.731-2.6871 0.98184-1.602 1.1265-3.5346 1.1472-5.3743 0.0207-10.831 0.1757-21.663 0.14469-32.494 0.0827-2.4288-1.602-5.302-4.3614-4.8885z"/>
   <path d="m-171.35 168.73c0.2377-0.11367 0.49608-0.18603 0.75446-0.24803 0.29972 2.098 0.5891 4.2064 0.84749 6.3148-0.21705 0.10335-0.45476 0.17569-0.69246 0.22737-1.0749-1.8293-2.1084-3.6897-3.1522-5.5293 0.25839-0.0724 0.51677-0.29971 0.79581-0.19637 0.66146 1.0749 1.1886 2.2427 1.9224 3.2659-0.10336-1.2816-0.33073-2.5528-0.47541-3.8344zm2.5528-0.85781c0.98184-0.33073 1.9637-0.68212 2.9559-0.98184 0.10335 0.2377 0.18603 0.47541 0.24804 0.72346-0.36172 0.14469-0.73379 0.25838-1.0955 0.38241 0.49609 1.4779 1.0025 2.9455 1.4883 4.4234 0.36173-0.12402 0.72346-0.25838 1.0955-0.36173 0.11368 0.22737 0.19637 0.47542 0.25838 0.7338-0.98184 0.35139-1.9637 0.69246-2.9559 0.99217-0.0931-0.23771-0.1757-0.48575-0.24804-0.73379 0.36173-0.13436 0.7338-0.24804 1.0955-0.37207-0.4961-1.4779-0.99218-2.9559-1.4986-4.4338-0.36174 0.12401-0.72347 0.26871-1.0955 0.36173-0.10335-0.22738-0.1757-0.47542-0.24805-0.7338zm7.1106-2.4081c0.2377-0.0827 0.47541-0.16536 0.72346-0.24804 0.71312 1.9637 1.3436 3.948 2.0154 5.922-0.22738 0.12403-0.47542 0.19638-0.72347 0.24805-0.93016-1.0749-1.8293-2.1807-2.7595-3.2556 0.40307 1.2609 0.86816 2.5114 1.2506 3.7827-0.23772 0.0827-0.47542 0.16537-0.72346 0.24805-0.7028-1.9637-1.3436-3.948-2.0154-5.9221 0.22737-0.11369 0.46507-0.19637 0.71312-0.26872 0.9405 1.0749 1.8397 2.1911 2.7698 3.2763-0.39274-1.2609-0.85782-2.5114-1.2506-3.7827zm3.5656-1.0232c0.75446-0.81648 2.2944-0.47543 2.6045 0.60977-0.2377 0.10335-0.47542 0.1757-0.71313 0.24805-0.31005-0.79581-1.6433-0.58911-1.54 0.32039 0.33073 1.1265 0.72347 2.2324 1.1162 3.3279 0.48575 0.74413 1.664 0.12402 1.4262-0.71313 0.23771-0.0827 0.4651-0.15503 0.71314-0.22737 0.74412 1.8293-2.2738 2.9352-2.9249 1.1162-0.26871-1.5089-1.8086-3.2349-0.68211-4.6818zm3.9894-1.4986c0.99218-0.33072 1.974-0.69245 2.9765-0.98184 0.0931 0.23771 0.1757 0.47542 0.22738 0.72346-0.73381 0.25838-1.4779 0.49609-2.2117 0.75447 0.19637 0.60978 0.41341 1.2196 0.62011 1.8397 0.62011-0.19637 1.2196-0.43408 1.8397-0.59944 0.10335 0.2377 0.18604 0.47541 0.23771 0.7338-0.59944 0.22737-1.2196 0.42374-1.819 0.62011 0.19637 0.62011 0.40307 1.2196 0.6201 1.8293 0.74414-0.2377 1.4676-0.50642 2.2221-0.7338 0.11369 0.23771 0.18603 0.48576 0.24804 0.7338-0.9715 0.36174-1.9637 0.67179-2.9558 1.0025-0.7028-1.9637-1.3436-3.948-2.005-5.9221zm4.8472-1.664c0.86815-0.19637 1.788-0.93017 2.6665-0.38241 1.0749 0.50643 1.2919 2.1187 0.43407 2.9145 0.62012 0.79581 1.2816 1.5709 1.881 2.3874-1.3229 0.78547-1.7983-1.3022-2.6665-1.974-0.14469 0.0517-0.28938 0.10335-0.43408 0.14469 0.27906 0.86816 0.59944 1.7156 0.85783 2.5941-0.23772 0.0827-0.47543 0.1757-0.71313 0.24805-0.72347-1.9534-1.3539-3.948-2.0257-5.9324zm1.0025 0.50642c0.19636 0.60978 0.4134 1.2196 0.6201 1.8397 0.69246-0.0827 1.4469-0.68213 1.1265-1.4469-0.26872-0.74412-1.1679-0.72345-1.7466-0.39273zm3.917-2.1394c0.99217-0.32039 1.9637-0.69246 2.9662-0.98184 0.10335 0.23771 0.1757 0.47541 0.23771 0.72345-0.74413 0.24805-1.4779 0.50643-2.2221 0.74414 0.2067 0.60977 0.40307 1.2299 0.62012 1.8397 0.60978-0.19637 1.2092-0.41341 1.819-0.60978 0.12402 0.23772 0.22737 0.48576 0.23771 0.75448-0.59944 0.2067-1.2092 0.40307-1.8087 0.62011 0.20671 0.60977 0.41341 1.2196 0.62011 1.8293 0.74414-0.2377 1.4779-0.50642 2.2221-0.74412 0.10336 0.2377 0.19638 0.48575 0.22738 0.74412-0.98184 0.34107-1.9637 0.69247-2.9559 0.99218-0.65111-1.9637-1.3332-3.9274-1.9637-5.9117z"/>
   <path d="m-178.1 176.91c0.062 0 0.1757-0.0103 0.22737-0.0207 0.25838 0.58911 0.53743 1.1782 0.78547 1.7777-0.18603 0.0724-0.31006 0.0104-0.37206-0.16537-0.10336 0.0207-0.21704 0.0413-0.3204 0.062 0.0413 0.19637-0.062 0.29972-0.24804 0.32039-0.031-0.65111-0.062-1.3126-0.0724-1.974zm0.27904 0.7338c0 0.22738 0.0104 0.44442 0.0104 0.67179 0.062-0.0103 0.19637-0.0413 0.26873-0.062-0.0931-0.19637-0.1757-0.40307-0.27906-0.60978zm-1.7053-0.9095c0.31005 0.0931 0.62011 0.18604 0.93016 0.28939-0.0207 0.062-0.0516 0.1757-0.062 0.23771-0.22737-0.0724-0.46508-0.13436-0.69245-0.2067-0.062 0.18603-0.11369 0.36173-0.1757 0.54777 0.18604 0.062 0.3824 0.12401 0.56843 0.18602-0.0207 0.062-0.062 0.1757-0.0827 0.23772-0.18603-0.0517-0.3824-0.11369-0.56844-0.1757-0.0516 0.18603-0.11368 0.37207-0.16536 0.54777 0.22738 0.0724 0.45476 0.14468 0.68213 0.21703-0.0207 0.062-0.0517 0.17569-0.0724 0.23771-0.31006-0.0931-0.62013-0.18603-0.93018-0.28939 0.18604-0.62011 0.37207-1.2299 0.56844-1.8293zm4.0721-0.22737c-0.59944-0.27905 0.28938-0.79581 0.22738-0.1447-0.062 0.031-0.1757 0.10336-0.22738 0.1447zm-1.4262-0.27905c0.0516-0.0517 0.15503-0.14469 0.2067-0.18603 0.43408 0.46508 0.87849 0.91983 1.3229 1.3849-0.0413 0.0413-0.13436 0.13435-0.18603 0.1757-0.34107-0.33073-0.66147-0.7028-1.0025-1.0335 0.0207 0.10335 0.0724 0.32039 0.10335 0.42374-0.1447-0.0413-0.28938-0.0827-0.43408-0.12402 0.33073 0.3514 0.67178 0.70279 1.0025 1.0542-0.062 0.062-0.12403 0.11369-0.18604 0.1757-0.44441-0.45475-0.88882-0.91984-1.3229-1.3746 0.0413-0.0517 0.1447-0.1447 0.18604-0.19637 0.13436 0.031 0.26872 0.0724 0.40307 0.11369-0.031-0.14469-0.062-0.27906-0.0931-0.41341zm-4.8162-0.12402m1.3746-0.18604c0.22737 0.22738 0.44441 0.47542 0.66145 0.72347-0.0516 0.0413-0.14469 0.12402-0.19637 0.16537-0.0827-0.0827-0.16536-0.1757-0.23771-0.25839-0.4134 0.37207-0.81647 0.75447-1.2402 1.1265-0.0413-0.0517-0.12402-0.1447-0.16536-0.19637 0.40307-0.3824 0.81648-0.74414 1.2299-1.1162-0.0724-0.0931-0.15503-0.17569-0.22738-0.26871 0.0413-0.0516 0.13435-0.13436 0.1757-0.1757zm5.0229-0.26871c-0.80614 0.0309-0.50643-1.1369 0.19637-0.75447 0.66145-0.21704 1.1576 0.78548 0.32039 0.84748 0.0517-0.19636 0.24805-0.29971 0.28939-0.49608-0.3204-0.0827-1.3022-0.44441-1.0542 0.19637 0.0724-0.0517 0.22737-0.15503 0.29972-0.2067-0.0104 0.13435-0.031 0.26871-0.0516 0.4134zm-7.4-0.9095c0.50642-0.062 1.0232-0.0827 1.5296-0.12402v0.20671c-0.37206 0.0207-0.74413 0.0517-1.1162 0.0827 0.10335 0.0516 0.21704 0.11369 0.32039 0.16536-0.0724 0.0516-0.21704 0.1447-0.28938 0.19637 0.37207-0.0207 0.75447-0.0516 1.1369-0.0827v0.19637c-0.49609 0.031-0.99218 0.0827-1.4883 0.11369-0.0103-0.0516-0.0103-0.15503-0.0207-0.2067 0.0827-0.062 0.16536-0.12403 0.24804-0.18604-0.16535-0.0724-0.28938-0.1757-0.32038-0.36173zm4.7852-0.83715h0.77514v0.19637h-0.56844v0.45475h0.46508v0.2067h-0.46508v0.45476h0.56844v0.19636h-0.75447c-0.0309-0.50642 0.0104-1.0128-0.0207-1.5089zm-1.0438 0h0.19636v0.64078h0.36173v-0.64078h0.19637c-0.0931 0.4961 0.18603 1.1989-0.16536 1.5503-0.031-0.22737-0.031-0.46509-0.031-0.70279h-0.36172c0 0.2377 0 0.46509-0.0207 0.70279-0.37207-0.3514-0.0931-1.0542-0.1757-1.5503zm-1.0232 0c0.28939-0.0827 1.2092 0.0827 0.47542 0.20671v1.2919h-0.19637v-1.3022h-0.27905v-0.19637zm4.0721-0.0309c0.50642-0.10336 1.0025-0.21704 1.5089-0.29972 0 0.40306-0.57877 0.46508-0.81648 0.72346 0.29973-0.062 0.59944-0.12403 0.89917-0.18603 0.0103 0.0516 0.0413 0.14469 0.0516 0.19636-0.51676 0.0516-1.0645 0.36174-1.571 0.21704 0.23771-0.26871 0.57877-0.42374 0.86816-0.63044-0.29972 0.0516-0.5891 0.11368-0.88883 0.1757-0.0207-0.0517-0.0413-0.15503-0.0516-0.19637zm-6.5835-0.42374c0.36173-0.28939 1.9637 0.18603 1.2609 0.84748-0.41341-0.0104-1.2506-0.0517-1.3539-0.47542 0.43408 0 1.0025 0.47542 1.3539 0.17569-0.1757-0.42373-0.87849-0.31005-1.2609-0.54775zm0.40307-0.78548c0.031-0.0413 0.0931-0.12402 0.11368-0.1757 0.3514 0.24804 0.71314 0.49609 1.0645 0.75447 0.10334-0.15503 0.21703-0.29972 0.32038-0.45475 0.0413 0.031 0.12403 0.0827 0.16537 0.10335-0.1447 0.21704-0.28939 0.42375-0.43408 0.63045-0.41341-0.27905-0.81648-0.56844-1.2299-0.85782zm6.8212-0.28939 0.1757-0.10335c0.0724 0.24805 0.56843 0.57878 0.2377 0.76481-0.0413-0.062-0.11369-0.18603-0.15503-0.24805-0.31005 0.18603-0.62011 0.3824-0.93016 0.56843 0.0413 0.062 0.10335 0.18604 0.14469 0.24805-0.0413 0.0207-0.13435 0.0724-0.1757 0.0931-0.062-0.23771-0.55809-0.56844-0.23771-0.76481 0.0413 0.062 0.12403 0.18604 0.15503 0.24804 0.31006-0.18603 0.62011-0.3824 0.93017-0.56843-0.0413-0.0827-0.0931-0.15502-0.14469-0.23771zm-1.8293 0.0931c0.32039-0.41341 0.63045-0.82682 0.97151-1.2196 0.15502 0.11368 0.15502 0.27905 0.11368 0.45475 0.15503-0.0827 0.3204-0.10336 0.46509 0.0207-0.32039 0.40307-0.63045 0.81648-0.97151 1.2092-0.26872-0.34106 0.42374-0.68211 0.5581-1.0128-0.10335 0.0413-0.20671 0.0724-0.31006 0.11368 0.0103-0.0827 0.031-0.24805 0.0413-0.33072-0.29971 0.19637-0.46508 0.94049-0.86815 0.76481zm-4.2994-0.70281c0.19636-0.17569 0.40307-0.34106 0.62011-0.49608 0.11369 0.14469 0.031 0.25838-0.10335 0.36173 0.1757 0.3824 0.88882 0.7338 0.68212 1.1472-0.29972-0.33072-0.56844-0.69246-0.84749-1.0335-0.0724 0.062-0.14469 0.11369-0.21703 0.17569-0.031-0.0413-0.093-0.11369-0.13436-0.15503zm3.4416 0.40308c0.31005-0.42374 0.45475-1.2092 0.95083-1.3436-0.14468 0.49609 0 1.1989-0.35139 1.5503-0.0207-0.0724-0.0517-0.22737-0.0724-0.29972-0.18603-0.0517-0.3514 0.0724-0.52709 0.0931zm-2.2738-1.1989c0.23771-0.093 0.47543-0.17569 0.71314-0.25837 0.0103 0.0413 0.0413 0.1447 0.062 0.18603-0.062 0.0207-0.19636 0.0724-0.25837 0.10335 0.12401 0.34107 0.24804 0.69246 0.37207 1.0335 0.0827-0.031 0.17569-0.062 0.25837-0.0931 0.0207 0.0413 0.0516 0.1447 0.0724 0.18604-0.24805 0.0931-0.49609 0.18603-0.75448 0.25837-0.0309-0.16535 0.0413-0.26871 0.21705-0.29971-0.12402-0.34106-0.24805-0.68213-0.36173-1.0232-0.0724 0.0207-0.2067 0.062-0.26872 0.0827zm1.7156 1.1369c-0.82681-0.22737-0.16536-2.3151 0.46508-1.1369-0.64078-0.39273-0.67178 0.29973-0.57877 0.8785 0.0517 0.0207 0.15503 0.062 0.19637 0.0827 0.0413-0.0413 0.12402-0.12403 0.1757-0.16537l-0.21704-0.031c0-0.0517 0.0103-0.14469 0.0103-0.19637h0.40307c0.0103 0.25838-0.12402 0.60978-0.45474 0.56844zm-0.39274-2.0877c3.5243-0.47542 6.3975 3.669 4.7335 6.8006-1.3642 3.2246-6.3045 3.669-8.2061 0.72347-2.1911-2.8008-0.0724-7.3793 3.4726-7.524zm-0.32039 0.29972c-2.2841 0.33073-4.0411 2.6251-3.7413 4.9196 0.18603 2.1704 2.1394 3.9997 4.3201 4.041 3.0282 0.22738 5.5293-3.1212 4.4338-5.9531-0.66144-2.036-2.9042-3.4003-5.0126-3.0075z"/>
   <path d="m-204.95 180.05c0.23771-0.0827 0.47541-0.16536 0.71312-0.24804 0.7028 1.9637 1.3539 3.9584 2.0154 5.9427-0.23771 0.0931-0.47541 0.1757-0.72345 0.2377-0.94051-1.0748-1.8397-2.1807-2.7698-3.2659 0.41341 1.2609 0.86816 2.5218 1.2609 3.793-0.2377 0.0827-0.47541 0.16537-0.72346 0.24804-0.71313-1.9637-1.3539-3.948-2.0154-5.922 0.22738-0.11369 0.47543-0.18604 0.72347-0.24805 0.94051 1.0852 1.8397 2.191 2.7698 3.2763-0.40307-1.2816-0.86816-2.5321-1.2506-3.8137zm3.7517-1.2092c0.22737-0.1137 0.45475-0.18604 0.70279-0.23771 1.0439 1.8293 2.098 3.669 3.1316 5.4983-0.24805 0.10336-0.50642 0.19637-0.7648 0.25838-0.12402-0.22737-0.24805-0.44441-0.3824-0.67178-0.40307 0.10335-0.79581 0.24804-1.1886 0.39273 0.0309 0.25838 0.0724 0.51677 0.0931 0.77514-0.23771 0.0931-0.48575 0.1757-0.7338 0.24805-0.34106-2.067-0.57877-4.1651-0.85782-6.2631zm1.1369 2.2014c-0.0103 0.74413 0.15503 1.4779 0.24804 2.2221 0.28939-0.0827 0.57877-0.1757 0.84748-0.28939-0.32038-0.66145-0.68211-1.3126-1.0955-1.9327zm1.7673-3.2349c0.98184-0.34107 1.9534-0.67179 2.9352-0.99218 0.12403 0.23771 0.19638 0.48575 0.25839 0.74413-0.36173 0.12402-0.7338 0.24805-1.0955 0.37207 0.57878 1.7363 1.1989 3.4519 1.7363 5.1986-0.2377 0.0827-0.47541 0.16536-0.72346 0.2377-0.64078-1.7156-1.1782-3.4623-1.7777-5.1883-0.36172 0.12402-0.72346 0.26872-1.1059 0.36173-0.0931-0.23771-0.18603-0.47541-0.22737-0.73379zm6.9866-2.3461c0.2377-0.0931 0.48575-0.1757 0.73379-0.25838 0.54777 1.5916 1.1162 3.1832 1.5916 4.7955 0.24805 1.5709-2.0774 2.4081-2.8938 1.0542-0.62011-1.5813-1.1059-3.2246-1.664-4.8369 0.24804-0.0931 0.48575-0.18604 0.74412-0.23772 0.54777 1.5296 1.0335 3.0799 1.5813 4.6095 0.3824 0.70279 1.602 0.27905 1.4262-0.52709-0.47541-1.54-1.0335-3.0592-1.5193-4.5992zm3.0282 0.0931c-0.0931-1.7156 2.5941-2.1601 3.0695-0.51675-0.22737 0.12401-0.47541 0.19637-0.72345 0.27904-0.36174-1.0128-2.005-0.36173-1.4573 0.62011 0.75448 0.7338 1.9534 0.81648 2.7905 1.4469 0.65112 0.62011 0.63044 1.7983-0.0931 2.3564-0.78547 0.72347-2.2117 0.3204-2.5011-0.70278 0.23771-0.0931 0.48576-0.1757 0.7338-0.24806 0.37206 1.0232 1.9947 0.29973 1.4366-0.65111-0.99218-0.93017-3.1832-0.82682-3.2556-2.5838z"/>
  </g>
  <path d="m-195.14 146.47c0.18603 0.0413 0.28938 0.19637 0.39274 0.33073 5.5707 7.1623 11.224 14.263 16.764 21.456-3.4623 1.1989-6.9452 2.3564-10.418 3.5346-2.2841-2.9559-4.5682-5.9014-6.8109-8.8883 0.0207-5.4673 0.0413-10.945 0.0724-16.433zm-12.165 3.4623c3.5966-1.2092 7.183-2.4494 10.79-3.638 0.0104 9.4567-0.062 18.913-0.0931 28.38-3.4933 1.1886-6.9762 2.3771-10.48 3.545-0.11369-9.4257-0.15503-18.862-0.21703-28.287zm19.306-6.5938c3.421-1.1575 6.8316-2.3358 10.253-3.4623 0.12401 8.7126 0.18602 17.435 0.29971 26.158-0.0103 0.1757 0.062 0.40307-0.11369 0.51675-3.4003-4.3408-6.8316-8.6609-10.18-13.033-0.11369-3.3899-0.18604-6.7902-0.25839-10.18zm11.606-3.9687c1.5916-0.51676 3.1729-1.1162 4.7645-1.571 5.8084 7.4517 11.617 14.914 17.394 22.386-3.4726 1.2299-6.9659 2.3874-10.459 3.576-1.0232-1.3436-2.0154-2.6872-3.0489-4.0204-2.8008 0.94051-5.5913 1.943-8.4025 2.8215-0.0207-1.85-0.0413-3.7103-0.062-5.5603 1.6846-0.59945 3.39-1.1782 5.0746-1.7673-1.7156-2.2944-3.483-4.5578-5.1573-6.8832-0.0517-2.9972-0.0413-5.9944-0.10335-8.9813zm11.844-4.0824c3.483-1.1886 6.9659-2.3668 10.449-3.5346 0.11369 8.8469 0.22738 17.725 0.18604 26.572-3.5863-4.4855-7.0589-9.064-10.594-13.591-0.031-3.1522-0.0413-6.2941-0.0413-9.4464zm11.865-3.9377c3.5863-1.2196 7.1726-2.4494 10.769-3.6586 0.0413 9.4567-0.0724 18.924-0.0827 28.38-3.4726 1.1575-6.9349 2.4081-10.439 3.4933-0.062-9.405-0.18604-18.81-0.24805-28.215z" fill="#fff200"/>
 </g>
</svg>
